<svg xmlns="http://www.w3.org/2000/svg" version="1.1" xmlns:xlink="http://www.w3.org/1999/xlink" xmlns:svgjs="http://svgjs.dev/svgjs" viewBox="0 0 800 800" opacity="0.63"><defs><linearGradient gradientTransform="rotate(270)" x1="50%" y1="0%" x2="50%" y2="100%" id="sssquiggly-grad"><stop stop-color="hsl(206, 75%, 49%)" stop-opacity="1" offset="0%"></stop><stop stop-color="hsla(353, 98%, 41%, 1.00)" stop-opacity="1" offset="100%"></stop></linearGradient></defs><g stroke-width="0.5" stroke="url(#sssquiggly-grad)" fill="none" stroke-linecap="round" transform="matrix(1,0,0,1,-5,273.9947700500488)"><path d="M10,10C49.583333333333336,12.916666666666668,118.75,29.416666666666664,200,24C281.25,18.583333333333336,316.66666666666663,-16.833333333333332,400,-16C483.33333333333337,-15.166666666666666,516.6666666666666,26.958333333333332,600,28C683.3333333333334,29.041666666666668,758.3333333333334,-2.875,800,-11"></path><path d="M10,10C49.583333333333336,12.916666666666668,118.75,29.416666666666664,200,24C281.25,18.583333333333336,316.66666666666663,-16.833333333333332,400,-16C483.33333333333337,-15.166666666666666,516.6666666666666,26.958333333333332,600,28C683.3333333333334,29.041666666666668,758.3333333333334,-2.875,800,-11" transform="matrix(1,0,0,1,0,240)"></path><path d="M10,10C49.583333333333336,12.916666666666668,118.75,29.416666666666664,200,24C281.25,18.583333333333336,316.66666666666663,-16.833333333333332,400,-16C483.33333333333337,-15.166666666666666,516.6666666666666,26.958333333333332,600,28C683.3333333333334,29.041666666666668,758.3333333333334,-2.875,800,-11" transform="matrix(1,0,0,1,0,228)"></path><path d="M10,10C49.583333333333336,12.916666666666668,118.75,29.416666666666664,200,24C281.25,18.583333333333336,316.66666666666663,-16.833333333333332,400,-16C483.33333333333337,-15.166666666666666,516.6666666666666,26.958333333333332,600,28C683.3333333333334,29.041666666666668,758.3333333333334,-2.875,800,-11" transform="matrix(1,0,0,1,0,216)"></path><path d="M10,10C49.583333333333336,12.916666666666668,118.75,29.416666666666664,200,24C281.25,18.583333333333336,316.66666666666663,-16.833333333333332,400,-16C483.33333333333337,-15.166666666666666,516.6666666666666,26.958333333333332,600,28C683.3333333333334,29.041666666666668,758.3333333333334,-2.875,800,-11" transform="matrix(1,0,0,1,0,204)"></path><path d="M10,10C49.583333333333336,12.916666666666668,118.75,29.416666666666664,200,24C281.25,18.583333333333336,316.66666666666663,-16.833333333333332,400,-16C483.33333333333337,-15.166666666666666,516.6666666666666,26.958333333333332,600,28C683.3333333333334,29.041666666666668,758.3333333333334,-2.875,800,-11" transform="matrix(1,0,0,1,0,192)"></path><path d="M10,10C49.583333333333336,12.916666666666668,118.75,29.416666666666664,200,24C281.25,18.583333333333336,316.66666666666663,-16.833333333333332,400,-16C483.33333333333337,-15.166666666666666,516.6666666666666,26.958333333333332,600,28C683.3333333333334,29.041666666666668,758.3333333333334,-2.875,800,-11" transform="matrix(1,0,0,1,0,180)"></path><path d="M10,10C49.583333333333336,12.916666666666668,118.75,29.416666666666664,200,24C281.25,18.583333333333336,316.66666666666663,-16.833333333333332,400,-16C483.33333333333337,-15.166666666666666,516.6666666666666,26.958333333333332,600,28C683.3333333333334,29.041666666666668,758.3333333333334,-2.875,800,-11" transform="matrix(1,0,0,1,0,168)"></path><path d="M10,10C49.583333333333336,12.916666666666668,118.75,29.416666666666664,200,24C281.25,18.583333333333336,316.66666666666663,-16.833333333333332,400,-16C483.33333333333337,-15.166666666666666,516.6666666666666,26.958333333333332,600,28C683.3333333333334,29.041666666666668,758.3333333333334,-2.875,800,-11" transform="matrix(1,0,0,1,0,156)"></path><path d="M10,10C49.583333333333336,12.916666666666668,118.75,29.416666666666664,200,24C281.25,18.583333333333336,316.66666666666663,-16.833333333333332,400,-16C483.33333333333337,-15.166666666666666,516.6666666666666,26.958333333333332,600,28C683.3333333333334,29.041666666666668,758.3333333333334,-2.875,800,-11" transform="matrix(1,0,0,1,0,144)"></path><path d="M10,10C49.583333333333336,12.916666666666668,118.75,29.416666666666664,200,24C281.25,18.583333333333336,316.66666666666663,-16.833333333333332,400,-16C483.33333333333337,-15.166666666666666,516.6666666666666,26.958333333333332,600,28C683.3333333333334,29.041666666666668,758.3333333333334,-2.875,800,-11" transform="matrix(1,0,0,1,0,132)"></path><path d="M10,10C49.583333333333336,12.916666666666668,118.75,29.416666666666664,200,24C281.25,18.583333333333336,316.66666666666663,-16.833333333333332,400,-16C483.33333333333337,-15.166666666666666,516.6666666666666,26.958333333333332,600,28C683.3333333333334,29.041666666666668,758.3333333333334,-2.875,800,-11" transform="matrix(1,0,0,1,0,120)"></path><path d="M10,10C49.583333333333336,12.916666666666668,118.75,29.416666666666664,200,24C281.25,18.583333333333336,316.66666666666663,-16.833333333333332,400,-16C483.33333333333337,-15.166666666666666,516.6666666666666,26.958333333333332,600,28C683.3333333333334,29.041666666666668,758.3333333333334,-2.875,800,-11" transform="matrix(1,0,0,1,0,108)"></path><path d="M10,10C49.583333333333336,12.916666666666668,118.75,29.416666666666664,200,24C281.25,18.583333333333336,316.66666666666663,-16.833333333333332,400,-16C483.33333333333337,-15.166666666666666,516.6666666666666,26.958333333333332,600,28C683.3333333333334,29.041666666666668,758.3333333333334,-2.875,800,-11" transform="matrix(1,0,0,1,0,96)"></path><path d="M10,10C49.583333333333336,12.916666666666668,118.75,29.416666666666664,200,24C281.25,18.583333333333336,316.66666666666663,-16.833333333333332,400,-16C483.33333333333337,-15.166666666666666,516.6666666666666,26.958333333333332,600,28C683.3333333333334,29.041666666666668,758.3333333333334,-2.875,800,-11" transform="matrix(1,0,0,1,0,84)"></path><path d="M10,10C49.583333333333336,12.916666666666668,118.75,29.416666666666664,200,24C281.25,18.583333333333336,316.66666666666663,-16.833333333333332,400,-16C483.33333333333337,-15.166666666666666,516.6666666666666,26.958333333333332,600,28C683.3333333333334,29.041666666666668,758.3333333333334,-2.875,800,-11" transform="matrix(1,0,0,1,0,72)"></path><path d="M10,10C49.583333333333336,12.916666666666668,118.75,29.416666666666664,200,24C281.25,18.583333333333336,316.66666666666663,-16.833333333333332,400,-16C483.33333333333337,-15.166666666666666,516.6666666666666,26.958333333333332,600,28C683.3333333333334,29.041666666666668,758.3333333333334,-2.875,800,-11" transform="matrix(1,0,0,1,0,60)"></path><path d="M10,10C49.583333333333336,12.916666666666668,118.75,29.416666666666664,200,24C281.25,18.583333333333336,316.66666666666663,-16.833333333333332,400,-16C483.33333333333337,-15.166666666666666,516.6666666666666,26.958333333333332,600,28C683.3333333333334,29.041666666666668,758.3333333333334,-2.875,800,-11" transform="matrix(1,0,0,1,0,48)"></path><path d="M10,10C49.583333333333336,12.916666666666668,118.75,29.416666666666664,200,24C281.25,18.583333333333336,316.66666666666663,-16.833333333333332,400,-16C483.33333333333337,-15.166666666666666,516.6666666666666,26.958333333333332,600,28C683.3333333333334,29.041666666666668,758.3333333333334,-2.875,800,-11" transform="matrix(1,0,0,1,0,36)"></path><path d="M10,10C49.583333333333336,12.916666666666668,118.75,29.416666666666664,200,24C281.25,18.583333333333336,316.66666666666663,-16.833333333333332,400,-16C483.33333333333337,-15.166666666666666,516.6666666666666,26.958333333333332,600,28C683.3333333333334,29.041666666666668,758.3333333333334,-2.875,800,-11" transform="matrix(1,0,0,1,0,24)"></path><path d="M10,10C49.583333333333336,12.916666666666668,118.75,29.416666666666664,200,24C281.25,18.583333333333336,316.66666666666663,-16.833333333333332,400,-16C483.33333333333337,-15.166666666666666,516.6666666666666,26.958333333333332,600,28C683.3333333333334,29.041666666666668,758.3333333333334,-2.875,800,-11" transform="matrix(1,0,0,1,0,12)"></path></g></svg>